<svg width="250" height="250" xmlns="http://www.w3.org/2000/svg"><g fill="none" fill-rule="evenodd"><path d="M124.6378 13.4718c48.751638 0 88.2873 39.535551 88.2873 88.2873 0 48.751638-39.535662 88.2873-88.2873 88.2873-48.751749 0-88.2873-39.535662-88.2873-88.2873 0-48.751749 39.535551-88.2873 88.2873-88.2873" fill="#F9EBD2"/><path d="M124.6378 22.4718c43.7819 0 79.2873 35.5053 79.2873 79.2873 0 43.7819-35.5054 79.2873-79.2873 79.2873-43.782 0-79.2873-35.5054-79.2873-79.2873 0-43.782 35.5053-79.2873 79.2873-79.2873" fill="#FFFFFE"/><path d="M124.6378 10.9538c25.0707 0 47.7726 10.1661 64.2059 26.5994 16.4332 16.4333 26.5994 39.1352 26.5994 64.2059 0 25.0707-10.1662 47.7726-26.5994 64.2059-16.4333 16.4332-39.1352 26.5994-64.2059 26.5994-25.0707 0-47.7726-10.1662-64.2059-26.5994-16.4333-16.4333-26.5994-39.1352-26.5994-64.2059 0-25.0707 10.1661-47.7726 26.5994-64.2059 16.4333-16.4333 39.1352-26.5994 64.2059-26.5994zm60.5415 30.2638c-15.4956-15.4956-36.9014-25.0812-60.5415-25.0812-23.6401 0-45.0459 9.5856-60.5415 25.0812-15.4956 15.4956-25.0812 36.9017-25.0812 60.5415 0 23.6401 9.5856 45.0459 25.0812 60.5415 15.4956 15.4956 36.9014 25.0812 60.5415 25.0812 23.6401 0 45.0459-9.5856 60.5415-25.0812 15.4956-15.4956 25.0812-36.9014 25.0812-60.5415 0-23.6398-9.5856-45.0459-25.0812-60.5415z" fill="#E0A35C"/><path d="M86.7729 90.0971c18.7285-6.9664 46.5216-7.4373 55.6529-24.5974-8.009 19.6634-36.4649 19.0797-53.6905 26.4113-6.1945 2.6376-11.8607 6.3978-14.7299 9.9459-1.4191 1.7541-2.1442 3.7712-2.4815 5.6259-.3299 1.8131-.5255 4.5678.3158 6.5441.9119 2.1424 2.7618 5.7608 5.2072 8.0475 1.4568-.6494 3.8923-1.5332 5.5837-1.5332h.434l22.9122-.25c1.5355 0 2.226.972 2.226 2.5075h.0111l-.0973 5.9502c0 .7361.2994 1.4048.781 1.8893.4847.4819 2.7827 1.324 3.5189 1.324.7384 0 1.4051-.2973 1.8836-.7758l.0108-.0108c.4785-.4782.7758-1.1452.7758-1.8836h.0111l.9326-6.2634c0-1.5356 1.2039-1.6949 2.7394-1.6949l11.0738 1.0902c1.5355 0 .9576-1.0184.9576.5174l.7049 1.2186-.6944 13.9056c0 1.1872.9223 2.9653 1.7075 3.7505.7855.7852 1.8652 1.9676 3.0524 1.9676 1.1871 0 3.6601.82 4.4453.0348l1.351-1.3476c.7183-.7744 2.1795-2.7476 2.1795-3.8831v-15.3854c0-1.5414 1.4239-2.0948 2.9654-2.0948l16.4032.4349c2.5472 0 4.9113.7327 6.8411 2.1203 1.3009-1.2722 2.2431-2.5325 2.8644-3.763.7694-1.5214 3.2845-4.1267 3.1148-5.51-.173-1.4145-1.9993-3.6417-2.9591-4.8915l-.0513-1c-1.0358-1.3485-3.4694-2.9761-5.2045-4.0462-3.9866 4.5887-11.9925 10.4547-17.7689 11.823 8.261-4.7738 21.5759-13.2361 20.4398-23.6548.0249-2.3411-.7226-5.3546-2.7134-7.3406-1.7461-1.7419-6.0273-3.657-9.445-4.9734-8.6536 14.7407-28.5667 19.0446-44.481 25.1569 14.0635-5.4258 35.8931-12.0537 42.1345-26.1737 1.8144-4.1051 2.7113-10.7671-.2271-15.7887-1.8397-3.1427-4.2585-7.1674-8.5206-10.6772-.9026-.7436-3.1485-1.6606-4.4297-2.6584l-1.389-1.8374c-3.2772-2.5512-5.1183-2.6291-7.3063-5.3946-2.9461-3.723-4.3923-8.6275-1.62-12.8497-10.5174 1.1576-14.1545 7.4591-14.4527 14.1936-.4817 10.859-4.3382 20.4971-11.4682 28.4032 4.3093-4.4334 6.4233-9.2328 7.1487-14.9976-7.005 1.9075-13.0184 5.2912-17.2267 8.1289-3.9464 2.6609-6.6444 5.6169-8.1422 8.6996-1.438 2.9596-1.7779 6.076-1.061 9.1854.3398 1.4762-1.0361 4.9189-.2197 6.4006" fill="#F9EBD2"/><path d="M91.3344 82.5674c-.7761-1.6245-.5128-5.0284.8362-7.9636 1.9721-4.2903 5.8828-7.9654 9.0992-6.7865 6.6297 2.4293-7.8548 18.9014-9.9354 14.7501M78.6666 113.8267c-6.7963-10.544 14.5027-19.0131 19.4556-18.6831 2.5419.1692 1.558 3.109.4989 4.4538-1.205 1.5304-2.9038 2.9441-4.6978 4.1902-3.1658 2.1985-4.6933 3.02-7.0223 6.2234-2.5254 3.4747-5.8345 7.5391-8.2344 3.8157" fill="#F1EDDB"/><path d="M81.3638 119.5213c-11.0214-8.2228-5.1381-18.2373 8.449-24.2609 18.6193-8.2548 46.5726-8.6596 52.613-29.7607-6.3596 19.7504-36.4649 18.0553-53.6905 25.3868-6.1945 2.6377-12.522 6.7609-15.3913 10.3091-1.419 1.754-2.7116 5.0626-3.0489 6.9174-.33 1.813-.2999 5.7651.5414 7.7414.9122 2.1421 4.5899 2.323 7.0353 4.6097 1.0882-.4853 2.2623-.8096 3.492-.9428M117.5676 53.5985c5.2223-9.709-.0244-19.2855 13.5839-22.4717-10.5174 1.1574-12.0679 6.4157-12.3678 13.1502-.1417 3.1989-.5236 6.3182-1.2161 9.3215" fill="#FFFFFE"/><path d="M115.8453 132.7656c-1.4995 1.495-2.147.6321-4.4067.6321-2.2652 0-3.0229.9383-4.5176-.5559l-.5244-.5247c-1.4945-1.4944-1.4449-1.7384-1.4449-4.0036l-.1836-4.8708-22.1375-.375v.011c-1.6943 0-5.5258 2.6533-6.6458 3.7732-1.12 1.1197-1.0145 3.2219-1.0145 4.9165 0 1.6948 2.1826 4.0767 3.3026 5.1967 1.1197 1.12 2.6626 1.7221 4.3577 1.7221l16.2635-.0933c1.5415 0 2.0478.0383 2.0478 1.5797 0 1.5415.8883 1.4865-.6531 1.4865l-14.4017.381 36.1536 87.9041 6.4406-5.9199 30.1464-81.0601-5.5301-2.1441c-1.5414 0-2.7915.894-2.7915-.6475 0-1.5414 1.6704-1.2557 3.2119-1.2557l9.398-.0442c1.6946 0 3.2374.5165 4.3574-.6032 1.1203-1.1203 3.3029-3.1292 3.3029-4.824 0-1.6946.2336-5.9899-.8861-7.1099-1.1199-1.1197-4.4288-2.6986-6.1234-2.6986l-17.6717.4204-.5097 14.0068c0 2.6385-1.4689 3.1369-3.1688 4.9176l-.161.1754c-1.7947 1.7947-2.365 3.3259-5.093 3.3259-2.7284 0-4.1364-.6933-5.931-2.4879-1.7946-1.7949-2.3989-3.2023-2.3989-5.931l.5575-13.9722-9.5167-1.3989-1.4692 5.6194c0 2.2564-.8504 2.9355-2.342 4.4351l-.0062.0059-.0108.0111z" fill="#EEC987"/><path d="M138.8986 138.0655v-10.0899c0-1.0604-.8756-1.9361-1.936-1.9361-1.0492 0-1.9361.8873-1.9361 1.9361v10.0899c0 1.0491.8869 1.9361 1.9361 1.9361 1.0604 0 1.936-.8756 1.936-1.9361M112.9656 128.0297v-2.0775c0-.8081-.6676-1.4757-1.4757-1.4757-.7997 0-1.4758.6761-1.4758 1.4757v2.0775c0 .7997.6761 1.476 1.4758 1.476.8081 0 1.4757-.6678 1.4757-1.476" fill="#F1EDDB"/><path d="M102.6237 151.9006c.4532-.2617 6.3045 9.0246 13.0663 20.7365 6.762 11.7119 11.8785 21.4223 11.4253 21.6842-.4533.2617-6.3046-9.0246-13.0663-20.7365-6.7621-11.7122-11.8786-21.4226-11.4253-21.6842M110.5278 147.3374c.4532-.2617 6.3042 9.0243 13.0663 20.7362 6.762 11.7122 11.8783 21.4226 11.425 21.6842-.4532.2617-6.3042-9.0243-13.0663-20.7365-6.762-11.7119-11.8783-21.4223-11.425-21.6839M118.4316 142.7739c.4533-.2617 6.3046 9.0243 13.0666 20.7365 6.7618 11.7119 11.8783 21.4223 11.425 21.6839-.4532.262-6.3045-9.0243-13.0663-20.7362-6.762-11.7122-11.8785-21.4226-11.4253-21.6842" fill="#E0A35C"/><path d="M127.115 142.7742c.4533.2616-4.663 9.972-11.425 21.6839-6.7621 11.7121-12.6131 20.9982-13.0663 20.7365-.4533-.2616 4.6629-9.972 11.425-21.6842 6.762-11.7119 12.613-20.9979 13.0663-20.7362M135.0191 147.3374c.4533.2616-4.6633 9.972-11.425 21.6842-6.7621 11.7119-12.6133 20.9982-13.0666 20.7362-.4533-.2616 4.6633-9.972 11.4253-21.6839 6.7618-11.7119 12.6131-20.9982 13.0663-20.7365M142.923 151.9009c.4532.2616-4.663 9.972-11.4251 21.6839-6.762 11.7122-12.613 20.9982-13.0663 20.7365-.4532-.2616 4.663-9.972 11.4251-21.6842 6.762-11.7119 12.613-20.9979 13.0663-20.7362" fill="#E0A35C"/><path fill="#F1EDDB" d="M122.7732 228.1491l-28.3329-85.1839-3.6689-1.0533-3.6929.0975 2.4944 8.994z"/><path d="M100.8466 137.3821c1.5415 0 2.7916 1.2501 2.7916 2.7915 0 1.5415-1.2501 2.7916-2.7916 2.7916H88.034l34.7392 85.1839 34.7388-85.1839h-5.5298c-1.5415 0-2.7916-1.2501-2.7916-2.7916 0-1.5414 1.2501-2.7915 2.7916-2.7915h10.9338c1.6946 0 3.2377-.6956 4.3577-1.8153 1.12-1.12 1.8153-2.6629 1.8153-4.3577 0-1.6946-.6956-3.2375-1.8153-4.3574-1.12-1.1197-2.6631-1.8153-4.3577-1.8153h-16.043v13.0291c0 2.6382-1.0479 5.0454-2.7479 6.8258-.0507.0601-.1043.1188-.161.1755-1.7949 1.7946-4.2735 2.9092-7.0015 2.9092-2.7284 0-5.2067-1.1146-7.0013-2.9092-1.7949-1.7946-2.9092-4.2729-2.9092-7.0013v-13.0402l-7.3707.0003.0105 3.2882c0 2.2561-.9247 4.3143-2.4162 5.8138l-.0063.0063-.0062.0062-.0046.0045c-1.4995 1.495-3.5603 2.4225-5.82 2.4225-2.2652 0-4.3257-.9278-5.8204-2.4222l-.0108-.0107c-1.4944-1.4948-2.4222-3.5553-2.4222-5.8204v-3.2882l-20.5546-.0003v.0111c-1.6943 0-3.2374.6956-4.3574 1.8155-1.12 1.12-1.8156 2.6626-1.8156 4.3572 0 1.6948.6953 3.2377 1.8153 4.3577 1.1197 1.1199 2.6626 1.8153 4.3577 1.8153h18.216zm-18.8419 5.5664c-2.9883-.1585-5.688-1.4434-7.679-3.4345-2.1291-2.1291-3.4512-5.0695-3.4512-8.3049 0-3.2355 1.3221-6.175 3.4515-8.3044 2.1293-2.1294 5.0697-3.4515 8.3046-3.4515v.0108l23.3462.0003c1.5355 0 2.7805 1.245 2.7805 2.7808h.0107v6.0687c0 .7361.2994 1.4045.7813 1.8893.4847.4819 1.1531.7809 1.8893.7809.7387 0 1.4051-.2971 1.8836-.7755l.011-.0111c.4785-.4782.7756-1.1449.7756-1.8836h.011l.0003-6.0687c0-1.5358 1.245-2.7808 2.7805-2.7808l12.943-.0003c1.5355 0 2.7808 1.245 2.7808 2.7808h.0108v15.8207c0 1.1872.4878 2.2689 1.2733 3.0541.7852.7852 1.8669 1.2733 3.0541 1.2733 1.1871 0 2.2691-.4881 3.0543-1.2733.0371-.0372.0751-.0732.1139-.1077.7181-.7745 1.1591-1.8108 1.1591-2.9464v-15.8207c0-1.5415 1.2501-2.7916 2.7916-2.7916h18.8345c3.2355 0 6.1756 1.3221 8.3049 3.4512 2.1289 2.1294 3.4509 5.0692 3.4509 8.3047 0 3.2354-1.322 6.1758-3.4509 8.3049-1.9913 1.9908-4.6916 3.276-7.6793 3.4345l-38.1838 93.6317c-.2738.675-.8093 1.2425-1.5378 1.5375-1.4272.578-3.0529-.1102-3.6312-1.5375l-38.1841-93.6317z" fill="#E0A35C"/><path d="M90.9358 87.3659c-5.5431-12.352 2.1266-20.9738 22.0527-28.7691-7.6558-.1434-13.5623 3.399-17.7709 6.2365-3.9464 2.6609-7.0608 6.0355-8.5587 9.1182-1.438 2.9599-1.1279 7.38-.411 10.4893.3399 1.476 1.6651 2.219 2.4812 3.7007.7271-.2702 1.4629-.5284 2.2067-.7756" fill="#FFFFFE"/><path d="M112.9883 58.5965c-7.0047 1.9074-12.5842 4.3773-16.7928 7.215-3.9461 2.6609-6.6444 5.6166-8.1419 8.6993-1.438 2.9599-1.7779 6.0763-1.061 9.1857.3401 1.476.9204 2.9633 1.7365 4.445 18.7285-6.9668 43.5237-5.7425 53.6964-22.6418-6.3593 19.7507-36.4643 20.4721-53.6902 27.8042-6.1945 2.6371-11.0341 5.8309-13.9039 9.379-1.4188 1.7544-2.3395 3.5756-2.6774 5.4301-.3299 1.813-.1136 3.7199.7277 5.6965 1.1429 2.6849 3.4192 5.5023 7.0081 8.4052l-3.0076 3.7404c-4.2352-3.4254-6.9738-6.8738-8.4177-10.266-1.2215-2.8695-1.5256-5.6908-1.0284-8.4217.4898-2.6887 1.7453-5.2308 3.655-7.5921 2.9522-3.6507 7.5047-6.9103 13.2043-9.6338-.9116-1.7353-1.5744-3.4985-1.9831-5.2736-.9646-4.1853-.5105-8.3732 1.4184-12.3434 1.8689-3.8472 5.1126-7.4523 9.7773-10.5979 5.0176-3.3834 11.7315-6.2694 20.2037-8.3798.1457-1.9752.1726-3.9277.1984-5.8127.165-12.1312.2988-21.9079 23.0975-21.5314l6.7122.1105-5.2648 4.1655c-4.7194 3.7336-4.4918 6.7774-2.2706 9.5848 1.817 2.2964 4.8286 4.6418 7.8829 7.02l.0045-.0056c1.0908.8489 2.187 1.7022 3.5683 2.8394 4.718 3.8858 8.0161 7.6445 10.1316 11.2592 3.3497 5.7229 3.7987 11.0614 2.2365 15.9778 3.9441 1.5534 6.9594 3.4543 9.1174 5.6067 2.9647 2.9573 4.3361 6.3612 4.297 9.9969-.0334 3.0518-1.0811 6.2028-3.0282 9.3251 2.0752 1.3298 3.8256 2.8823 5.1468 4.6024l-.0056.0045c1.489 1.9386 2.4397 4.0779 2.7173 6.3462.2814 2.3009-.1217 4.701-1.3454 7.1229-1.2353 2.4443-3.3304 4.9071-6.4372 7.2944l-2.9134-3.797c2.4902-1.9134 4.1354-3.8194 5.0649-5.6588.7691-1.5217 1.0265-2.9954.8572-4.3787-.1729-1.4145-.7838-2.7709-1.7439-4.0201h-.0093c-1.0361-1.3487-2.4693-2.5838-4.2044-3.6538-3.9866 4.5887-11.9928 9.0617-17.7689 10.43 8.261-4.7735 20.0131-13.2361 18.8767-23.6548.0255-2.3411-.896-4.5712-2.8865-6.5568-1.7464-1.7422-4.2914-3.3089-7.7088-4.6259-8.6536 14.741-29.0336 19.6974-44.481 24.0256 14.0635-5.4258 35.0252-14.1434 41.2665-28.2631 1.8145-4.1051 1.7561-8.678-1.1826-13.699-1.8397-3.1433-4.7792-6.4709-9.0417-9.9811-.9028-.7432-2.1929-1.7478-3.4744-2.7453v-.0094c-3.2769-2.5511-6.5075-5.0666-8.6953-7.8318-2.946-3.7236-4.0464-7.5844-1.2739-11.8066-10.5176 1.1577-12.0679 6.4154-12.3678 13.1502-.4805 10.8595-3.7301 20.8018-12.5099 28.4032 3.5263-5.0276 5.4686-8.4926 6.7145-14.0837" fill="#E0A35C"/><path fill="#FFFFFE" d="M43.4893 190.3472v-27.2835H28.9152v36.3776h32.6069zM220.3604 163.0637h-14.5741v27.2835l-18.0329 9.0941h32.607z"/><path d="M218.5924 164.8319h-29.0707v32.8411h29.0707v-32.8411zm-30.839-3.5362h34.3752v39.9135h-36.1431v-39.9135h1.7679zM59.7539 164.8319H30.6832v32.8411h29.0707v-32.8411zm-30.8387-3.5362H63.2901v39.9135H27.147v-39.9135h1.7682z" fill="#E0A35C"/><path fill="#FFFFFE" d="M205.7863 153.9699H43.4893v35.4319l18.0328.9454H205.7863v-27.2835z"/><path d="M41.721 192.1151l1.7683-2.2408 19.0133-.7321.7875 12.067-21.5691-9.0941zm165.8336 0l-1.7683-1.7679-18.2415-.648-1.5593 11.51 21.5691-9.0941z" fill="#E0A35C"/><path d="M43.4893 152.2016h164.0653v39.9135H41.721v-39.9135h1.7683zm160.5291 3.5362H45.2572v32.8414H204.0184v-32.8414z" fill="#E0A35C"/><text font-family="Gotham-Medium, Gotham" font-size="15.267" font-weight="400" fill="#E0A35C" transform="translate(-173 -173)"><tspan x="223.6674" y="350.520929">VANILLA PROJECT</tspan></text></g></svg>
