<svg width="250" height="250" xmlns="http://www.w3.org/2000/svg"><g fill-rule="nonzero" fill="none"><path d="M92.97 194s-9.516 5.38 6.77 7.2c19.732 2.189 29.816 1.875 51.56-2.126 0 0 5.716 3.485 13.7 6.504C116.256 225.889 54.684 204.4 92.97 194M86.429 167s-10.694 7.836 5.638 9.508c21.121 2.157 37.801 2.333 66.664-3.168 0 0 3.992 4.006 10.269 6.197C109.944 196.63 44.165 180.885 86.429 167" fill="#5382A1"/><path d="M136.908 119.86c11.893 13.759-3.125 26.14-3.125 26.14s30.198-15.665 16.33-35.28C137.16 92.427 127.227 83.338 181 52c0 0-84.406 21.183-44.092 67.86" fill="#E76F00"/><path d="M201.19 214.068s7.054 5.696-7.77 10.104c-28.19 8.368-117.328 10.895-142.09.333-8.902-3.795 7.791-9.061 13.042-10.166 5.476-1.164 8.605-.947 8.605-.947-9.899-6.834-63.984 13.419-27.472 19.219 99.573 15.825 181.512-7.126 155.684-18.543M97.691 138.04s-45.222 10.792-16.014 14.71c12.332 1.66 36.916 1.284 59.816-.644 18.715-1.586 37.507-4.958 37.507-4.958s-6.6 2.84-11.373 6.114c-45.922 12.134-134.635 6.49-109.096-5.922 21.599-10.49 39.16-9.3 39.16-9.3M178.925 183.777c46.041-24.272 24.754-47.598 9.895-44.455-3.642.769-5.265 1.435-5.265 1.435s1.352-2.148 3.934-3.078c29.394-10.485 52 30.922-9.489 47.321 0 0 .712-.646.925-1.223" fill="#5382A1"/><path d="M150.382 1s25.793 25.956-24.463 65.87c-40.3 32.017-9.19 50.272-.017 71.13-23.524-21.352-40.788-40.148-29.206-57.641 17-25.679 64.093-38.13 53.686-79.359" fill="#E76F00"/><path d="M102.078 249.237C146.76 252.035 215.375 247.684 217 227c0 0-3.124 7.841-36.928 14.069C141.935 248.09 94.898 247.27 67 242.77c0 0 5.711 4.625 35.078 6.467" fill="#5382A1"/></g></svg>
