<svg width="250" height="250" xmlns="http://www.w3.org/2000/svg"><path d="M247.793 121.946l-10.453-6.471a141.805 141.805 0 00-.297-3.045l8.982-8.378a3.585 3.585 0 001.076-3.333 3.584 3.584 0 00-2.267-2.67l-11.483-4.293c-.288-.995-.59-1.982-.9-2.964l7.163-9.949a3.597 3.597 0 00-2.34-5.654l-12.11-1.97c-.47-.918-.96-1.822-1.455-2.72l5.088-11.168a3.582 3.582 0 00-.28-3.492 3.578 3.578 0 00-3.117-1.596l-12.29.428a97.112 97.112 0 00-1.94-2.355l2.823-11.97a3.592 3.592 0 00-.958-3.372 3.597 3.597 0 00-3.369-.958l-11.968 2.821a103.285 103.285 0 00-2.36-1.941l.43-12.29a3.583 3.583 0 00-1.596-3.116 3.592 3.592 0 00-3.49-.283l-11.167 5.09c-.901-.494-1.805-.984-2.719-1.457l-1.974-12.111a3.598 3.598 0 00-5.652-2.341l-9.956 7.163c-.98-.312-1.965-.612-2.96-.897L151.96 5.169a3.59 3.59 0 00-2.669-2.272 3.606 3.606 0 00-3.33 1.075l-8.379 8.99c-1.01-.112-2.03-.214-3.045-.297l-6.47-10.456a3.596 3.596 0 00-6.117 0l-6.47 10.456c-1.019.083-2.037.185-3.048.297l-8.38-8.99a3.594 3.594 0 00-6 1.197l-4.294 11.485c-.995.285-1.98.587-2.962.897l-9.954-7.163a3.586 3.586 0 00-3.48-.404 3.603 3.603 0 00-2.174 2.745l-1.975 12.11c-.913.474-1.817.962-2.719 1.459l-11.167-5.09a3.585 3.585 0 00-3.49.282 3.583 3.583 0 00-1.596 3.117l.428 12.289c-.794.635-1.582 1.284-2.36 1.941l-11.968-2.821a3.609 3.609 0 00-3.37.958 3.592 3.592 0 00-.96 3.371l2.82 11.97c-.655.776-1.302 1.561-1.937 2.356l-12.29-.428a3.62 3.62 0 00-3.116 1.596 3.595 3.595 0 00-.283 3.492L26.296 70.5c-.495.897-.985 1.8-1.458 2.719l-12.109 1.97a3.598 3.598 0 00-2.34 5.654l7.162 9.949c-.312.982-.614 1.97-.9 2.964L5.167 98.05a3.6 3.6 0 00-1.192 6.002l8.986 8.378c-.112 1.011-.212 2.03-.298 3.045l-10.453 6.47a3.593 3.593 0 00-1.703 3.06c0 1.249.645 2.405 1.703 3.057l10.453 6.47c.086 1.018.186 2.034.298 3.045l-8.985 8.38a3.596 3.596 0 001.191 6l11.486 4.294c.285.995.587 1.982.9 2.964l-7.164 9.951a3.595 3.595 0 002.343 5.653l12.107 1.97c.473.917.958 1.821 1.458 2.723l-5.09 11.164a3.59 3.59 0 00.282 3.492 3.583 3.583 0 003.117 1.597l12.284-.431c.64.8 1.285 1.582 1.942 2.36l-2.82 11.973a3.581 3.581 0 00.96 3.363 3.582 3.582 0 003.37.957l11.969-2.82a95.2 95.2 0 002.36 1.937l-.429 12.292a3.593 3.593 0 005.086 3.397l11.167-5.089c.9.5 1.803.985 2.72 1.459l1.974 12.103a3.59 3.59 0 002.174 2.748 3.604 3.604 0 003.48-.402l9.95-7.168c.982.312 1.969.617 2.963.902l4.294 11.48a3.584 3.584 0 002.67 2.268 3.577 3.577 0 003.33-1.076l8.38-8.985c1.012.117 2.03.214 3.048.305l6.47 10.453a3.6 3.6 0 003.058 1.703 3.602 3.602 0 003.06-1.703l6.47-10.453a116.71 116.71 0 003.045-.305l8.378 8.985a3.578 3.578 0 003.33 1.076 3.588 3.588 0 002.67-2.267l4.294-11.48c.994-.286 1.982-.59 2.964-.903l9.951 7.168a3.6 3.6 0 005.652-2.346l1.975-12.103c.913-.474 1.817-.966 2.72-1.459l11.166 5.089a3.59 3.59 0 005.086-3.397l-.428-12.292a96.06 96.06 0 002.357-1.936l11.969 2.819a3.578 3.578 0 003.368-.957 3.581 3.581 0 00.959-3.363l-2.82-11.973a97.165 97.165 0 001.937-2.36l12.29.43a3.58 3.58 0 003.116-1.596 3.584 3.584 0 00.28-3.492l-5.088-11.164c.498-.902.985-1.806 1.456-2.724l12.109-1.97a3.581 3.581 0 002.745-2.174 3.595 3.595 0 00-.404-3.478l-7.163-9.95c.31-.983.611-1.97.9-2.965l11.482-4.294a3.583 3.583 0 002.267-2.669 3.576 3.576 0 00-1.075-3.33l-8.983-8.38c.11-1.012.21-2.03.298-3.046l10.453-6.47a3.59 3.59 0 001.703-3.057 3.594 3.594 0 00-1.701-3.06zm-69.962 86.712c-3.992-.861-6.53-4.796-5.674-8.8.854-3.998 4.787-6.544 8.776-5.683 3.992.854 6.535 4.796 5.679 8.793-.857 3.996-4.791 6.544-8.78 5.69zm-3.552-24.022a6.74 6.74 0 00-8.005 5.186l-3.71 17.318c-11.453 5.198-24.17 8.086-37.564 8.086-13.7 0-26.694-3.03-38.35-8.45l-3.71-17.318c-.78-3.644-4.362-5.966-8.002-5.183l-15.29 3.282a90.715 90.715 0 01-7.905-9.318h74.394c.842 0 1.404-.152 1.404-.918v-26.315c0-.766-.562-.918-1.404-.918H104.38v-16.681h23.533c2.148 0 11.485.614 14.47 12.549.936 3.67 2.989 15.61 4.392 19.433 1.4 4.286 7.094 12.85 13.163 12.85h37.07c.422 0 .871-.047 1.345-.133a91.346 91.346 0 01-8.431 9.891l-15.642-3.36zm-102.893 23.66c-3.992.862-7.922-1.684-8.78-5.683-.854-4.006 1.684-7.938 5.676-8.8a7.4 7.4 0 018.78 5.691c.854 3.997-1.686 7.936-5.676 8.792zM43.165 93.86c1.656 3.738-.029 8.117-3.761 9.77a7.388 7.388 0 01-9.756-3.768c-1.656-3.74.028-8.112 3.761-9.77a7.39 7.39 0 019.756 3.768zm-8.674 20.561l15.927-7.077a6.752 6.752 0 003.428-8.907l-3.28-7.417h12.9v58.15H37.44a91.13 91.13 0 01-3.469-24.97c0-3.304.179-6.57.521-9.779zm69.893-5.647v-17.14h30.722c1.586 0 11.204 1.834 11.204 9.025 0 5.971-7.377 8.112-13.443 8.112h-28.483v.003zM216.032 124.2c0 2.274-.083 4.524-.25 6.758h-9.34c-.934 0-1.31.614-1.31 1.53v4.289c0 10.096-5.693 12.292-10.682 12.85-4.75.536-10.017-1.988-10.667-4.895-2.802-15.763-7.472-19.129-14.847-24.945 9.152-5.812 18.675-14.385 18.675-25.86 0-12.393-8.495-20.198-14.286-24.025-8.124-5.355-17.118-6.428-19.545-6.428H57.19c13.098-14.618 30.85-24.973 50.928-28.742l11.385 11.945a6.733 6.733 0 009.53.219l12.74-12.185c26.693 4.97 49.293 21.586 62.318 44.383l-8.721 19.697c-1.506 3.409.03 7.396 3.43 8.906l16.79 7.458c.29 2.98.443 5.993.443 9.045zm-96.525-99.628c2.95-2.826 7.63-2.714 10.453.24a7.41 7.41 0 01-.245 10.47c-2.95 2.826-7.63 2.717-10.453-.243a7.412 7.412 0 01.245-10.467zm86.545 69.647a7.386 7.386 0 019.754-3.766c3.732 1.656 5.417 6.033 3.761 9.77a7.387 7.387 0 01-9.756 3.768c-3.728-1.656-5.412-6.03-3.759-9.772z" fill="#000" fill-rule="nonzero"/></svg>
